<svg xmlns="http://www.w3.org/2000/svg" viewBox="0 0 1000 1000">
  <path d="m857.14 500a355.56 355.56 0 0 0 -71.43-214.31 357.88 357.88 0 0 0 -88.22-83.28 355.44 355.44 0 0 0 -197.49-59.55 142.86 142.86 0 0 0 0 285.71 284.3 284.3 0 0 1 127 29.72q5.76 2.86 11.36 6a286.5 286.5 0 0 1 50.64 35.71 286.66 286.66 0 0 1 76 107.14 285 285 0 0 1 20.78 107.15 355.56 355.56 0 0 0 71.36-214.29zm-427.56-202.38a71.42 71.42 0 1 1 70.42 59.52 72 72 0 0 1 -70.42-59.52z"/>
  <path d="m634.68 666.63a143 143 0 0 0 -134.68-95.2 287.05 287.05 0 0 1 -64.19-7.24 283.85 283.85 0 0 1 -62.81-22.49q-5.76-2.85-11.36-6a286.5 286.5 0 0 1 -50.64-35.7 286.66 286.66 0 0 1 -76-107.14 285 285 0 0 1 -20.78-107.15 357.21 357.21 0 0 0 0 428.62 357.88 357.88 0 0 0 88.22 83.28 355.44 355.44 0 0 0 197.56 59.53 142.86 142.86 0 0 0 134.68-190.51zm-206.11 47.66a71.43 71.43 0 1 1 71.43 71.42 72 72 0 0 1 -71.43-71.42z"/>
</svg>
